<?xml version="1.0" encoding="utf-8"?>
<!-- Generator: Adobe Illustrator 19.0.1, SVG Export Plug-In . SVG Version: 6.00 Build 0)  -->
<svg version="1.1" id="Layer_1" xmlns="http://www.w3.org/2000/svg" xmlns:xlink="http://www.w3.org/1999/xlink" x="0px" y="0px"
	 viewBox="0 0 147 50" enable-background="new 0 0 147 50" xml:space="preserve">
<g opacity="0.5">
	<g>
		<path fill="#0098e6" d="M51.7,18.2v-3.4H37.4v3.4c0,0,4.7,0,5,0v13.5c-0.3,0-5,0-5,0v3.4h14.2v-3.4c0,0-5.1,0-5.4,0V18.2
			C46.5,18.2,51.7,18.2,51.7,18.2z"/>
		<g>
			<path fill="#0098e6" d="M75.3,18.3h-5.7v5.6c0,0,3.1-0.1,5.6-0.1c2.5,0,3.2-0.5,3.2-3.1C78.4,17.8,75.3,18.3,75.3,18.3z"/>
			<path fill="#0098e6" d="M58.9,10v30h29.5V10H58.9z M82.4,30.2c0,4.2,0,4.7,0,4.7h-4.1v-4.4c0,0,0-3.4-2.3-3.4s-6.4,0.1-6.4,0.1
				V35h-4V14.8h11.7c0,0,5-0.3,5,5.2s-3.1,5.8-3.1,5.8S82.4,25.9,82.4,30.2z"/>
		</g>
		<polygon fill="#0098e6" points="93.8,14.8 93.8,18.1 96.6,18.1 96.6,31.7 93.8,31.7 93.8,35 111,35 111,28.5 107.5,28.5 
			107.5,31.7 100.3,31.7 100.3,26.2 105.7,26.2 105.7,22.9 100.3,22.9 100.3,18.1 107.3,18.1 107.3,21.4 111,21.4 111,14.8 		"/>
		<g>
			<path fill="#0098e6" d="M134.4,18.2h-6.1v13.5c0,0,3.3,0,6.4,0c3.1,0,3.2-4,3.2-4s0-0.6,0-5.2C137.8,17.9,134.4,18.2,134.4,18.2z
				"/>
			<path fill="#0098e6" d="M117.5,10v30H147V10H117.5z M134.8,35.2c-7.4,0-10.7,0.1-10.7,0.1V14.9h8.7c0,0,9-1,9,7.1v5.7
				C141.9,27.7,142.2,35.2,134.8,35.2z"/>
		</g>
		<path fill="#0098e6" d="M0,10v30h29.5V10H0z M23.4,35h-5l-3.2-14.7l-3.5,14.8h-5L2.5,14.9h4.1l2.8,15.4L13,14.9l4.4,0.1L21,30.5
			l2.7-15.7h3.9L23.4,35z"/>
	</g>
</g>
</svg>
