<?xml version="1.0" encoding="utf-8"?>
<!-- Generator: Adobe Illustrator 19.0.1, SVG Export Plug-In . SVG Version: 6.00 Build 0)  -->
<svg version="1.1" id="Layer_1" xmlns="http://www.w3.org/2000/svg" xmlns:xlink="http://www.w3.org/1999/xlink" x="0px" y="0px"
	 viewBox="0 0 187 50" enable-background="new 0 0 187 50" xml:space="preserve">
<g opacity="0.5">
	<g>
		<path fill="#0098e6" d="M157.9,31v-4.8l-1.3,0.1c-1.3,0.1-2.4,1-2.4,2.6c0,1.9,1,2.7,2.1,2.7C156.9,31.7,157.6,31.3,157.9,31
			 M153.9,19.2l-1.2,3.4h-2.9v-4.4c1.6-0.5,3.8-1.3,6.8-1.3c4.5,0,6.9,1.8,6.9,5.6v9.2l2,0.8V34c-0.5,0.3-2.2,0.7-3.6,0.7
			c-1.8,0-3.1-0.6-3.4-2.4h-0.2c-0.7,1.5-2.7,2.4-4.8,2.4c-3,0-4.9-1.9-4.9-4.7c0-3.5,2.3-4.2,6-5l3.2-0.6v-2c0-2.2-0.7-3.2-2.8-3.2
			C154.8,19.2,154.3,19.2,153.9,19.2"/>
		<path fill="#0098e6" d="M97.1,31v-4.8l-1.3,0.1c-1.3,0.1-2.4,1-2.4,2.6c0,1.9,1,2.7,2.1,2.7C96.1,31.7,96.8,31.3,97.1,31
			 M93.1,19.2l-1.2,3.4H89v-4.4c1.6-0.5,3.8-1.3,6.8-1.3c4.5,0,6.9,1.8,6.9,5.6v9.2l2,0.8V34c-0.6,0.3-2.2,0.7-3.6,0.7
			c-1.8,0-3.1-0.6-3.4-2.4h-0.2c-0.7,1.5-2.7,2.4-4.8,2.4c-3,0-4.9-1.9-4.9-4.7c0-3.5,2.3-4.2,6-5l3.2-0.6v-2c0-2.2-0.7-3.2-2.8-3.2
			C94,19.2,93.5,19.2,93.1,19.2"/>
		<path fill="#0098e6" d="M2.6,29.6v-9.3H0v-2.6l2.6-0.3v-3.2l5.6-0.8v4h3.7v2.9H8.2v8.9c0,1.7,0.5,2.5,2.1,2.5
			c0.6,0,1.4-0.1,1.8-0.1v2.2c-0.9,0.5-2.8,1-4.6,1C4.1,34.6,2.6,33.1,2.6,29.6"/>
		<path fill="#0098e6" d="M41.2,19c1.4,0,2.2,0.6,2.2,5l-4.7,0.3C38.6,20.3,39.4,19,41.2,19 M38.7,26.3h10.1c0-7.1-2.4-9.3-7.5-9.3
			c-5,0-8.3,3.2-8.3,8.8c0,5.7,3,8.9,8.8,8.9c3.1,0,5.6-1.4,6.4-2.4v-1.6c-1.2,0.4-2.4,0.6-4.5,0.6C40.6,31.2,39,29.6,38.7,26.3"/>
		<path fill="#0098e6" d="M57.9,39.8c-3.1,0-4.4-0.8-4.4-1.9c0-0.8,0.2-1.6,0.8-2.1h6.6c1.4,0,2.5,0.2,2.5,1.4
			C63.4,39,61.7,39.8,57.9,39.8 M58,19c1.2,0,2,0.9,2,3.7c0,2.8-0.8,3.5-2,3.5c-1.2,0-2-0.7-2-3.5C56,19.9,56.8,19,58,19 M61.4,30.7
			h-5.6c-0.8,0-1.4-0.6-1.4-1.1c0-0.5,0.1-1.1,0.5-1.5c0.9,0.3,2,0.4,3.1,0.4c4.3,0,7.3-1.9,7.3-5.6c0-1.7-0.6-2.6-1.7-3.5l0.1-0.1
			l2.9,0.9V17h-0.3l-4.2,0.7h-0.2c-1-0.4-2.5-0.7-3.9-0.7c-4.3,0-7.4,2.1-7.4,5.7c0,2.2,0.9,3.9,2.8,4.8v0.2
			c-1.5,1.1-2.8,2.7-2.8,4.1c0,1.3,0.9,2.8,2.7,3.3v0.2c-1.5,0.5-3.7,1.1-3.7,2.9c0,2.3,2.8,3.8,8.1,3.8c6.6,0,9.5-2.7,9.5-6.7
			C67.3,32,65.2,30.7,61.4,30.7"/>
		<polygon fill="#0098e6" points="138.4,18.1 138.4,19.8 140.5,20.7 140.5,31.7 138.5,32.5 138.5,34.3 148.1,34.3 148.1,32.5 
			146.1,31.7 146.1,16.9 145.7,16.9 		"/>
		<path fill="#0098e6" d="M105.4,18.1v1.7l2.1,0.9v11l-2,0.8v1.8h10.3v-1.8l-2.7-0.8l0-9.2c1-0.5,2.2-0.6,3.7-0.6
			c0.5,0,1.1,0.1,1.4,0.2v-4.9c-0.2-0.1-0.6-0.1-0.8-0.1c-1.9,0-3.4,1.2-4.4,3.4h-0.2v-3.6h-0.5L105.4,18.1"/>
		<path fill="#0098e6" d="M143.3,10c1.6,0,3,1.3,3,3s-1.3,3-3,3c-1.6,0-3-1.3-3-3S141.7,10,143.3,10"/>
		<path fill="#0098e6" d="M130,13.7l-2.3-0.9v-1.7l7.4-1.1h0.5v21.2l2,1v1.7l-6.9,0.8l-0.5,0v-1.8H130c-0.7,0.9-2.2,1.8-4.2,1.8
			c-3.1,0-6.8-2-6.8-8.4c0-6.8,3.8-9.3,8.2-9.3c0.9,0,2,0.2,2.7,0.7V13.7 M130,31.3V19.9c-0.4-0.3-0.9-0.6-1.9-0.6
			c-1.8,0-3.1,1.6-3.1,6.4c0,4.2,1.1,6,3.3,6C129.1,31.6,129.6,31.5,130,31.3"/>
		<path fill="#0098e6" d="M69.6,20.7l-2.1-0.9v-1.7l7.2-1.1h0.5v11.9c0,1.9,0.9,2.3,2.4,2.3c1,0,1.5-0.2,2-0.4v-10l-2.1-0.9v-1.7
			l7.2-1.1h0.5v14.4l2.1,1v1.5l-7,0.8l-0.5,0l0-2.2h-0.2c-1.1,1.3-2.9,2.3-5.1,2.3c-3.4,0-4.8-2.4-4.8-5.3V20.7"/>
		<path fill="#0098e6" d="M13.1,32.5l2-0.8v-18L13,12.9v-1.7l7.2-1.1h0.5v9.2h0.2c1.5-1.4,3.5-2.2,5.8-2.2c2.8,0,4.3,1.4,4.3,4.5
			v10.2l2,0.8v1.8h-9.4v-1.8l1.8-0.8v-8.8c0-1.7-0.8-2.4-2.3-2.4c-0.8,0-1.6,0.2-2.3,0.4v10.7l1.8,0.8v1.8h-9.4V32.5"/>
		<path fill="#0098e6" d="M166.5,32.5l2-0.8v-11l-2.1-0.9v-1.7l7.2-1.1h0.5v2.2h0.2c1.5-1.4,3.5-2.2,5.8-2.2c2.8,0,4.3,1.4,4.3,4.5
			v10.2l2,0.8v1.8h-9.4v-1.8l1.8-0.8v-8.8c0-1.7-0.8-2.4-2.3-2.4c-0.8,0-1.6,0.2-2.3,0.4v10.7l1.8,0.8v1.8h-9.4V32.5"/>
	</g>
</g>
</svg>
