<?xml version="1.0" encoding="utf-8"?>
<!-- Generator: Adobe Illustrator 19.0.1, SVG Export Plug-In . SVG Version: 6.00 Build 0)  -->
<svg version="1.1" id="Layer_1" xmlns="http://www.w3.org/2000/svg" xmlns:xlink="http://www.w3.org/1999/xlink" x="0px" y="0px"
	 viewBox="0 0 108 50" enable-background="new 0 0 108 50" xml:space="preserve">
<g opacity="0.5">
	<g>
		<polygon fill-rule="evenodd" clip-rule="evenodd" fill="#0098e6" points="95,4.3 90.2,4.3 90.1,41.2 95,41.2 95,4.3 		"/>
		<path fill-rule="evenodd" clip-rule="evenodd" fill="#0098e6" d="M88.4,11.4c-0.3-1.6-1.8-2.8-3.4-2.6c-0.1,0-0.3,0-0.4,0
			c-0.9,0.1-1.8,0.6-2.3,1.4l0-1.1l-4.4,0l0,32l4.6,0l0-26.8c0-0.4,0-0.9,0.2-1.3c0.3-0.5,0.9-0.5,1.2,0c0.1,0.2,0.1,0.3,0.1,0.5
			v8.7l4.7,0l0-7.1C88.8,13.9,88.6,12.6,88.4,11.4L88.4,11.4z"/>
		<path fill-rule="evenodd" clip-rule="evenodd" fill="#0098e6" d="M50.8,9l-4.7,0l0,13.9c0,6.2,0.6,12.4,2.7,18.2l3.7,0
			c0.9-2.5,1.6-5.1,2-7.8c0-0.1,0.1-0.4,0.2-0.2l0.3,2c0.3,2,0.9,4.1,1.6,6l3.8,0l0.7-2.3c0-0.1,0.1-0.3,0.1-0.4
			c1.2-4.7,1.9-9.5,1.9-14.4c0.1-5,0-15,0-15l-4.7,0l0,8.5c0,0,0,6.4-0.1,9.6c-0.1,1.9-0.4,3.8-0.6,5.8c0,0,0,0.1,0,0.1l0,0l0,0
			c0,0,0,0,0-0.1c0-0.1-0.1-0.2-0.1-0.3c-0.5-3.5-0.7-7-0.7-10.5L57,9l-4.8,0c0,5,0,9.6,0,15c0,2.9-0.3,5.7-0.8,8.6
			c0,0-0.1,0.3-0.1,0.3c0,0,0,0,0-0.1l-0.1-0.6c-0.3-2.7-0.4-5.3-0.4-8L50.8,9L50.8,9L50.8,9z"/>
		<path fill-rule="evenodd" clip-rule="evenodd" fill="#0098e6" d="M42.6,9.6c-1.3-0.9-2.9-1.3-4.5-1.1c-0.3,0-0.6,0.1-0.9,0.1
			c-1.5,0.3-2.8,1.3-3.4,2.8c-0.4,0.9-0.5,1.9-0.5,2.9l0,20.5c0,0,0.1,2.3,0.4,3.4c0.4,1.7,1.9,2.8,3.5,3.2c0.6,0.1,1.3,0.1,1.9,0.1
			c1.4,0,2.7-0.5,3.8-1.4c0,0,0,0,0.1-0.1c0.9-1,1.5-2.3,1.5-3.6c0-3.2,0-6.4,0-9.6l-4.8,0l0,10c0,0.2-0.1,0.4-0.2,0.5
			c-0.3,0.4-0.9,0.4-1.1,0c-0.1-0.2-0.1-0.5-0.1-0.7l0-23.6c0-0.8,1.1-1,1.4-0.3c0,0.1,0,0.2,0,0.3l0,9.1l4.8,0l0-6.2
			c0-1,0-1.9-0.1-2.9c-0.1-1.2-0.6-2.4-1.5-3.2C42.7,9.7,42.6,9.6,42.6,9.6L42.6,9.6z"/>
		<path fill-rule="evenodd" clip-rule="evenodd" fill="#0098e6" d="M6.9,4.1L0,4.1L0,41l5,0l0-21.4c0-2.4,0-7.1,0-7.1l0.4,2.3
			C6.4,21,6.9,27.3,6.9,33.7l0,7.3l5.1,0l0-7.9c0-6.9,1.8-20.7,1.8-20.7s0,19.4,0,28.6l5.1,0l0-36.9L12.1,4
			c-1.3,4.8-2.1,9.8-2.6,14.8c0,0.1,0,0.2,0,0.3h0l0,0c0,0,0,0,0,0c0-0.1,0-0.2,0-0.4C9,13.7,8.2,8.9,6.9,4.1L6.9,4.1z"/>
		<path fill-rule="evenodd" clip-rule="evenodd" fill="#0098e6" d="M74.2,9.7c-1.6-1.2-3.7-1.3-5.6-0.9c-1.2,0.3-2.3,1.1-2.9,2.2
			c-0.5,1-0.8,3.3-0.8,3.3l0,20.2c0,1.2,0.1,2.4,0.3,3.6c0.2,1.1,0.9,2.2,1.9,2.8c2.3,1.3,5.6,1.2,7.5-0.8c0,0,0.1-0.1,0.1-0.1
			c0.9-1.1,1.4-2.5,1.4-3.9l0-20.3c0-1.1-0.1-2.3-0.3-3.4C75.6,11.4,75.1,10.3,74.2,9.7L74.2,9.7L74.2,9.7z M71.2,13
			c0,0.4,0.1,0.9,0.1,1.3l0,22.6c0.1,0.8-0.6,1.1-1.1,0.7c-0.4-0.3-0.3-1.1-0.3-1.4l0-23c0,0,0.1-0.4,0.2-0.6
			C70.3,12.2,71.1,12.4,71.2,13L71.2,13L71.2,13z"/>
		<path fill-rule="evenodd" clip-rule="evenodd" fill="#0098e6" d="M107.8,4.3l-4.8,0l0,5.4c-0.6-0.7-1.5-1.1-2.4-1.1
			c-0.2,0-0.4,0-0.6,0c-1.1,0.1-2.1,0.8-2.6,1.8c-0.4,0.9-0.7,2-0.7,3l0,22.5c0,1.2,0.1,2.4,0.5,3.5c0.4,1.3,1.7,2.1,3,2.1
			c0.1,0,0.3,0,0.4,0c1.1,0,1.9-0.5,2.6-1.3c0,0,0.1-0.1,0.1,0l0,0c0,0,0,0,0,0l0.1,0.9l4.4,0L107.8,4.3L107.8,4.3L107.8,4.3z
			 M103,13.4c0,0.4,0.1,0.8,0.1,1.2l0,22.4c0,0.6-0.9,0.9-1.3,0.4c-0.1-0.1-0.2-0.4-0.2-0.4l0-23.5c0-0.6,0.8-1,1.2-0.5
			C102.9,13.1,102.9,13.2,103,13.4L103,13.4z"/>
		<path fill-rule="evenodd" clip-rule="evenodd" fill="#0098e6" d="M29.3,9.4c-1.4-0.9-3.1-1.2-4.7-0.8c-1.3,0.2-2.6,1-3.2,2.2
			c-0.5,1-0.8,2.1-0.9,3.2l0,8.1l4.6,0l0-8.6c0-0.2,0-0.3,0.1-0.4c0.1-0.7,1.1-0.9,1.3-0.2c0,0.1,0.1,0.2,0.1,0.3l0,9.3
			c0,0-2.3,1.4-3.5,2.2c-1,0.7-1.9,1.7-2.3,2.8c0,0.1-0.1,0.2-0.1,0.2c-0.2,0.9-0.4,1.9-0.4,2.8l0,5.8c0,0,0.1,2,0.4,2.9
			c0.4,1.2,1.4,2,2.6,2.2c0.1,0,0.2,0,0.3,0c1.2,0.2,2.4-0.3,3.1-1.3l0,1l4.6,0l0-25c0-1.1-0.1-2.1-0.2-3.2
			c-0.2-1.3-0.8-2.5-1.7-3.3C29.4,9.5,29.4,9.4,29.3,9.4L29.3,9.4z M26.6,36.9c0,0-0.5,0.8-0.9,0.7c-0.1,0-0.1,0-0.1-0.1
			c-0.2-0.2-0.3-0.4-0.3-0.7c0-0.7-0.1-1.5-0.1-2.2l0-5.4c0-1,0.6-1.9,1.4-2.3C26.6,30.2,26.6,33.6,26.6,36.9L26.6,36.9L26.6,36.9z"
			/>
		<path fill-rule="evenodd" clip-rule="evenodd" fill="#0098e6" d="M105.8,44.9c0.3,0.1,0.5,0.3,0.8,0.5c0.2,0.2,0.4,0.4,0.5,0.7
			c0.2,0.3,0.2,0.7,0.2,1c0,0.4-0.1,0.8-0.3,1.2c-0.2,0.4-0.5,0.7-0.9,0.9c-0.4,0.2-0.8,0.3-1.2,0.3c-0.4,0-0.8-0.1-1.2-0.3
			c-0.4-0.2-0.7-0.5-0.9-0.9c-0.2-0.4-0.3-0.8-0.3-1.2c0-0.4,0.1-0.7,0.2-1c0.1-0.3,0.3-0.5,0.5-0.7c0.2-0.2,0.4-0.4,0.7-0.5
			c0.3-0.1,0.6-0.2,1-0.2C105.2,44.8,105.5,44.8,105.8,44.9L105.8,44.9z M107.4,46c-0.1-0.3-0.3-0.6-0.5-0.8
			c-0.2-0.2-0.5-0.4-0.9-0.6c-0.3-0.2-0.7-0.2-1.1-0.2c-0.4,0-0.8,0.1-1.2,0.3c-0.3,0.1-0.5,0.3-0.8,0.6c-0.2,0.2-0.4,0.5-0.6,0.9
			c-0.2,0.3-0.2,0.7-0.2,1.1c0,0.5,0.1,1,0.4,1.4c0.2,0.4,0.6,0.8,1,1c0.4,0.2,0.9,0.4,1.4,0.4c0.4,0,0.8-0.1,1.2-0.3
			c0.3-0.1,0.6-0.3,0.8-0.6c0.2-0.3,0.4-0.5,0.6-0.9c0.1-0.3,0.2-0.7,0.2-1.1C107.7,46.8,107.6,46.4,107.4,46L107.4,46z M104.8,47.6
			c0.2,0,0.3,0,0.4,0.1c0.1,0,0.2,0.1,0.2,0.2c0,0.1,0.1,0.2,0.1,0.4c0,0.3,0,0.4,0.1,0.5h0.7c0-0.1,0-0.2,0-0.4c0-0.2,0-0.3,0-0.4
			c0-0.1-0.1-0.2-0.1-0.3c-0.1-0.1-0.1-0.1-0.2-0.2c-0.1,0-0.2-0.1-0.3-0.1c0.2,0,0.3,0,0.3-0.1c0.1-0.1,0.2-0.2,0.3-0.3
			c0.1-0.1,0.1-0.3,0.1-0.4c0-0.2,0-0.3-0.1-0.4c-0.1-0.1-0.2-0.2-0.3-0.3c-0.1-0.1-0.3-0.1-0.4-0.2c-0.1,0-0.3,0-0.6,0h-1.1v3.1
			h0.7v-1.1H104.8L104.8,47.6z M105.1,46.1c0.1,0,0.2,0.1,0.3,0.2c0.1,0.1,0.1,0.2,0.1,0.3c0,0.1,0,0.2-0.1,0.3
			c-0.1,0.1-0.1,0.1-0.2,0.2c-0.1,0-0.2,0.1-0.3,0.1h-0.5v-1h0.5C104.9,46.1,105,46.1,105.1,46.1L105.1,46.1z"/>
	</g>
</g>
</svg>
