<?xml version="1.0" encoding="utf-8"?>
<!-- Generator: Adobe Illustrator 19.0.1, SVG Export Plug-In . SVG Version: 6.00 Build 0)  -->
<svg version="1.1" id="Layer_1" xmlns="http://www.w3.org/2000/svg" xmlns:xlink="http://www.w3.org/1999/xlink" x="0px" y="0px"
	 viewBox="0 0 184 50" enable-background="new 0 0 184 50" xml:space="preserve">
<g opacity="0.5">
	<g>
		<path fill="#0098e6" d="M12.5,19.5v17.1H6.3V19.5H0V14h18.8v5.4H12.5z"/>
		<path fill="#0098e6" d="M33.4,29.8h-9.9c0.2,1.9,1.3,2.7,2.9,2.7c1.5,0,2.7-0.3,4.4-1.2l2.2,3.7c-2.1,1.2-4.2,1.9-6.9,1.9
			c-5.1,0-7.9-3.6-7.9-8.8c0-5.8,3.3-8.8,7.7-8.8c4.6,0,7.5,3.1,7.5,9.3C33.4,29.1,33.4,29.5,33.4,29.8z M25.7,23.6
			c-1.3,0-2.1,0.9-2.2,2.6h4.8C28,24.5,27.4,23.6,25.7,23.6z"/>
		<path fill="#0098e6" d="M44.1,36.9c-4.9,0-7.9-3.1-7.9-8.8c0-5.2,2.6-8.7,8-8.7c3.2,0,5,1.5,6.5,3.9l-4,3C46,24.7,45.4,24,44.2,24
			c-1.5,0-2.2,1.5-2.2,4.1c0,2.7,0.8,4,2.4,4c1.1,0,1.9-0.6,2.9-2.2l3.7,2.9C49,35.8,47.1,36.9,44.1,36.9z"/>
		<path fill="#0098e6" d="M63.9,36.5V27c0-2.2-0.7-2.8-1.9-2.8c-1.2,0-2,0.6-2,2.7v9.6h-5.8V15.4l5.8-2.3v7.7
			c1.1-0.8,2.2-1.5,4.2-1.5c3.7,0,5.5,2.5,5.5,6.9v10.3H63.9z"/>
		<path fill="#0098e6" d="M83.5,36.9c-6.7,0-10.3-4.9-10.3-11.6c0-7.2,4.2-11.6,10.3-11.6c5.5,0,7.7,2.4,9.3,6.6l-5.7,2.2
			c-0.8-2.1-1.6-3.4-3.6-3.4c-2.6,0-3.7,2.6-3.7,6.2c0,3.4,1.1,6.2,3.8,6.2c2,0,2.8-1.1,4-3.2l5.3,2.8C91.4,34,88.9,36.9,83.5,36.9z
			"/>
		<path fill="#0098e6" d="M107.1,26c-0.7-0.8-1.6-1.4-2.7-1.4c-1.4,0-2.3,0.7-2.3,2.7v9.2h-5.8V19.7h5.8v1.2c1-1,2.1-1.6,3.6-1.6
			c1.2,0,2.1,0.3,2.7,0.7L107.1,26z"/>
		<path fill="#0098e6" d="M120.9,36.5v-1.1c-1,0.8-2.2,1.5-4.2,1.5c-3.7,0-5.5-2.5-5.5-6.9V19.7h5.8v9.6c0,2.2,0.7,2.8,1.9,2.8
			c1.2,0,1.9-0.6,1.9-2.7v-9.6h5.8v16.9H120.9z"/>
		<path fill="#0098e6" d="M140.5,36.5V27c0-2.2-0.7-2.8-1.9-2.8c-1.2,0-2,0.6-2,2.7v9.6h-5.8V19.7h5.8v1.1c1.1-0.8,2.2-1.5,4.2-1.5
			c3.7,0,5.5,2.5,5.5,6.9v10.3H140.5z"/>
		<path fill="#0098e6" d="M157.6,36.9c-4.9,0-7.9-3.1-7.9-8.8c0-5.2,2.6-8.7,8-8.7c3.2,0,5,1.5,6.5,3.9l-4,3
			c-0.8-1.5-1.4-2.2-2.6-2.2c-1.5,0-2.2,1.5-2.2,4.1c0,2.7,0.8,4,2.4,4c1.1,0,1.9-0.6,2.9-2.2l3.7,2.9
			C162.4,35.8,160.6,36.9,157.6,36.9z"/>
		<path fill="#0098e6" d="M177.3,36.5V27c0-2.2-0.7-2.8-1.9-2.8c-1.2,0-2,0.6-2,2.7v9.6h-5.8V15.4l5.8-2.3v7.7
			c1.1-0.8,2.2-1.5,4.2-1.5c3.7,0,5.5,2.5,5.5,6.9v10.3H177.3z"/>
	</g>
</g>
</svg>
