<svg version="1.1" baseProfile="tiny" id="Layer_1" xmlns="http://www.w3.org/2000/svg" xmlns:xlink="http://www.w3.org/1999/xlink"
	 x="0px" y="0px" viewBox="0 0 124 36" xml:space="preserve">
<g>
	<path fill="#FF63A3" d="M2.8,10.5H0V6.2h2.9V0h5.3v6.2h4.9v4.3H8.2v8.4c0,3.6,2.8,4.1,4.3,4.1c0.6,0,1-0.1,1-0.1v4.7
		c0,0-0.6,0.1-1.7,0.1c-3,0-9-0.9-9-8.1V10.5z"/>
	<path fill="#FF63A3" d="M28.4,14h0.7v-0.3c0-2.8-1.8-3.8-4.2-3.8c-3.1,0-5.9,2.1-5.9,2.1l-2-3.9c0,0,3.3-2.7,8.5-2.7
		c5.7,0,9,3.1,9,8.6v13.5h-5v-1.8c0-0.8,0.1-1.5,0.1-1.5h-0.1c0,0-1.7,3.8-6.6,3.8c-3.9,0-7.3-2.4-7.3-6.7
		C15.6,14.4,24.9,14,28.4,14z M24.3,23.8c2.8,0,4.9-3.1,4.9-5.7v-0.5h-0.9c-2.8,0-7.2,0.4-7.2,3.4C21.1,22.5,22.1,23.8,24.3,23.8z"
		/>
	<path fill="#FF63A3" d="M49.9,5.4c5.6,0,8.3,3.2,8.3,3.2l-2.4,3.7c0,0-2.2-2.3-5.6-2.3c-4,0-6.6,3-6.6,6.7c0,3.6,2.6,6.8,6.7,6.8
		c3.6,0,6.4-2.8,6.4-2.8l2.1,3.8c0,0-3.1,3.5-8.9,3.5c-7.2,0-11.7-5-11.7-11.3C38.1,10.6,42.7,5.4,49.9,5.4z"/>
	<path fill="#FF63A3" d="M63.3,10.5h-2.8V6.2h2.9V0h5.3v6.2h4.9v4.3h-4.9v8.4c0,3.6,2.8,4.1,4.3,4.1c0.6,0,1-0.1,1-0.1v4.7
		c0,0-0.6,0.1-1.7,0.1c-3,0-9-0.9-9-8.1V10.5z"/>
	<path fill="#0098E6" d="M77,5.9h5.4v12.8c0,2.6,0.7,4.4,3.3,4.4c3.9,0,6.1-3.4,6.1-7.3V5.9h5.4v21.6h-5.2v-2.5
		c0-0.8,0.1-1.5,0.1-1.5h-0.1C91,25.8,88.2,28,84.5,28c-4.6,0-7.5-2.3-7.5-8.2V5.9z"/>
	<path fill="#0098E6" d="M101.4,5.9h4.9v1.6c0,0.8-0.1,1.5-0.1,1.5h0.1c0,0,1.9-3.6,7-3.6c5.9,0,9.6,4.6,9.6,11.3
		c0,6.9-4.2,11.3-9.9,11.3c-4.3,0-6.2-3-6.2-3h-0.1c0,0,0.1,0.8,0.1,1.9V36h-5.4V5.9z M112,23.5c3,0,5.4-2.4,5.4-6.7
		c0-4.1-2.2-6.8-5.4-6.8c-2.8,0-5.4,2-5.4,6.8C106.6,20.2,108.5,23.5,112,23.5z"/>
</g>
</svg>
