<?xml version="1.0" encoding="utf-8"?>
<!-- Generator: Adobe Illustrator 19.0.1, SVG Export Plug-In . SVG Version: 6.00 Build 0)  -->
<svg version="1.1" id="Layer_1" xmlns="http://www.w3.org/2000/svg" xmlns:xlink="http://www.w3.org/1999/xlink" x="0px" y="0px"
	 viewBox="0 0 130 170" enable-background="new 0 0 130 170" xml:space="preserve">
<g>
	<path fill="#EF64A0" d="M125,86c0-33.1-26.9-60-60-60C31.9,26,5,52.9,5,86c0,30.7,23,55.9,52.7,59.6c0,0,0,0,0,0l-6,5.5l-3.7-1.5
		c-1-0.4-2.2,0.1-2.6,1.1c-0.4,1,0.1,2.2,1.1,2.6l4.9,2c0.2,0.1,0.5,0.2,0.8,0.2c0.5,0,1-0.2,1.3-0.5l2.3-2.1c0.4,2.7,1.9,5,4.1,6.4
		l-0.9,8.7c-0.1,1.1,0.7,2.1,1.8,2.2c0.1,0,0.1,0,0.2,0c1,0,1.9-0.8,2-1.8l0.8-7.6c0.4,0.1,0.8,0.1,1.2,0.1c0.4,0,0.8,0,1.3-0.1
		l0.8,7.6c0.1,1,1,1.8,2,1.8c0.1,0,0.1,0,0.2,0c1.1-0.1,1.9-1.1,1.8-2.2l-0.9-8.7c2.2-1.4,3.7-3.7,4.1-6.4l2.3,2.1
		c0.4,0.3,0.9,0.5,1.3,0.5c0.3,0,0.5,0,0.8-0.2l4.9-2c1-0.4,1.5-1.6,1.1-2.6c-0.4-1-1.6-1.5-2.6-1.1l-3.7,1.5l-6-5.5c0,0,0,0,0,0
		C102,141.9,125,116.7,125,86 M9,86c0-30.9,25.1-56,56-56s56,25.1,56,56c0,30.9-25.1,56-56,56S9,116.9,9,86 M65,156.7
		c-2.9,0-5.3-2.4-5.3-5.3c0-2.9,2.4-5.3,5.3-5.3s5.3,2.4,5.3,5.3C70.3,154.3,67.9,156.7,65,156.7"/>
	<path fill="#3193D1" d="M94.7,45.5L94.7,45.5c-3.3,0-7.9-1.1-12.6-2.9c-3.9-1.5-7.4-3.5-9.9-5.4c-3.2-2.5-4.4-4.8-3.6-6.9
		c0.3-0.7,0.7-1.2,1.4-1.7L96.7,0.8c0.6-0.6,1.4-0.8,2.2-0.5c0.8,0.3,1.3,1,1.3,1.8l0.4,38.5c0.2,0.8,0.1,1.5-0.1,2.2
		C99.7,44.6,97.8,45.5,94.7,45.5"/>
	<path fill="#FFFFFF" d="M72.5,31.8c0.6,1.2,4.1,4.3,11.1,7.1c4.1,1.6,8.3,2.6,11.1,2.6c1,0,1.5-0.1,1.9-0.2c0-0.1,0-0.2,0-0.3
		L96.2,7.1L72.8,31.6C72.7,31.6,72.6,31.7,72.5,31.8"/>
	<path fill="#3193D1" d="M98,37.3c-3.4,0-7.5-1.8-11-4.8c-5.9-5.1-8.2-11.8-5.2-15.4c0.5-0.6,1.3-0.6,1.9-0.1
		c0.6,0.5,0.6,1.3,0.1,1.9c-2.2,2.5,0.8,8.1,4.9,11.6c3.2,2.7,6.9,4.3,9.7,4.1c0.7-0.1,1.4,0.5,1.4,1.2c0,0.7-0.5,1.4-1.2,1.4
		C98.4,37.3,98.2,37.3,98,37.3"/>
	<path fill="#3193D1" d="M98.2,24.4c-2.2,0-4.9-1.1-7.2-3.1c-1.8-1.5-3.1-3.3-3.8-5.1c-0.8-2.1-0.6-3.9,0.5-5.1
		c0.5-0.6,1.3-0.6,1.9-0.1c0.6,0.5,0.6,1.3,0.1,1.9c-0.4,0.5-0.4,1.4,0,2.5c0.5,1.4,1.6,2.8,3,4c1.9,1.6,4.1,2.6,5.7,2.5
		c0.7-0.1,1.4,0.5,1.4,1.2c0,0.7-0.5,1.4-1.2,1.4C98.5,24.4,98.4,24.4,98.2,24.4"/>
	<path fill="#EF64A0" d="M59.5,108.4c0,1.8-1.5,3.3-3.3,3.3c-1.8,0-3.3-1.5-3.3-3.3c0-1.8,1.5-3.3,3.3-3.3
		C58,105.1,59.5,106.6,59.5,108.4"/>
	<path fill="#EF64A0" d="M71.9,108.4c0,1.8-1.5,3.3-3.3,3.3c-1.8,0-3.3-1.5-3.3-3.3c0-1.8,1.5-3.3,3.3-3.3
		C70.4,105.1,71.9,106.6,71.9,108.4"/>
	<path fill="#EF64A0" d="M69.7,118c0,0-0.1,0.1-0.2,0.2c-0.1,0.2-0.3,0.4-0.5,0.7c-0.1,0.1-0.2,0.3-0.4,0.5
		c-0.1,0.2-0.2,0.4-0.4,0.6c-0.3,0.4-0.5,0.9-0.8,1.4c-0.2,0.5-0.5,1.1-0.7,1.7c-0.2,0.6-0.3,1.2-0.5,1.9c-0.1,0.7-0.1,1.3-0.1,2
		c0,0.7,0.1,1.4,0.3,2.1c0.1,0.7,0.4,1.4,0.7,2.1c0.3,0.7,0.6,1.3,1,1.9c0.4,0.6,0.8,1.2,1.3,1.7c0.2,0.3,0.5,0.5,0.7,0.8
		c0.2,0.2,0.5,0.5,0.7,0.7c0.5,0.5,0.9,0.9,1.3,1.2c0.2,0.2,0.4,0.3,0.6,0.5c0.2,0.2,0.4,0.3,0.5,0.4c0.3,0.3,0.6,0.4,0.8,0.6
		c0.2,0.1,0.3,0.2,0.3,0.2s-0.1,0-0.4-0.1c-0.2-0.1-0.6-0.2-1.1-0.4c-0.2-0.1-0.5-0.2-0.7-0.3c-0.3-0.1-0.5-0.3-0.8-0.4
		c-0.6-0.3-1.2-0.6-1.8-1.1c-0.3-0.2-0.6-0.4-1-0.7c-0.3-0.2-0.6-0.5-0.9-0.8c-0.6-0.5-1.2-1.1-1.8-1.8c-0.3-0.3-0.5-0.7-0.7-1
		c-0.1-0.2-0.2-0.4-0.3-0.5c-0.1-0.2-0.2-0.4-0.3-0.6c-0.4-0.7-0.7-1.5-0.8-2.3c-0.2-0.8-0.3-1.6-0.2-2.4c0-0.4,0-0.8,0.1-1.1
		c0.1-0.4,0.2-0.7,0.3-1.1c0.2-0.7,0.5-1.4,0.9-2c0.2-0.3,0.4-0.6,0.6-0.9c0.2-0.3,0.4-0.6,0.7-0.8c0.2-0.3,0.4-0.5,0.7-0.7
		c0.2-0.2,0.4-0.4,0.7-0.6c0.2-0.2,0.4-0.4,0.6-0.5c0.2-0.2,0.4-0.3,0.6-0.4c0.3-0.3,0.7-0.4,0.9-0.5C69.6,118.1,69.7,118,69.7,118"
		/>
	<path fill="#EF64A0" d="M47.6,138.1c0,0,0.1-0.1,0.3-0.2c0.2-0.1,0.4-0.3,0.7-0.5c0.1-0.1,0.3-0.2,0.5-0.4c0.2-0.1,0.4-0.3,0.5-0.5
		c0.4-0.3,0.8-0.7,1.2-1.2c0.4-0.4,0.8-0.9,1.2-1.4c0.4-0.5,0.7-1.1,1-1.7c0.3-0.6,0.5-1.3,0.8-1.9c0.2-0.7,0.3-1.4,0.4-2.1
		c0.1-0.7,0.1-1.4,0-2.1c-0.1-0.7-0.2-1.4-0.4-2.1c-0.2-0.7-0.4-1.4-0.7-2c-0.1-0.3-0.3-0.6-0.4-0.9c-0.2-0.3-0.3-0.6-0.4-0.9
		c-0.3-0.6-0.6-1.1-0.9-1.5c-0.2-0.2-0.3-0.4-0.4-0.6c-0.1-0.2-0.3-0.4-0.4-0.5c-0.2-0.3-0.4-0.6-0.6-0.8c-0.1-0.2-0.2-0.3-0.2-0.3
		s0.1,0.1,0.3,0.2c0.2,0.1,0.5,0.3,0.9,0.6c0.2,0.1,0.4,0.3,0.6,0.5c0.2,0.2,0.4,0.4,0.7,0.6c0.5,0.4,1,0.9,1.4,1.5
		c0.3,0.3,0.5,0.6,0.7,0.9c0.2,0.3,0.5,0.6,0.7,1c0.4,0.7,0.8,1.4,1.1,2.2c0.1,0.4,0.3,0.8,0.4,1.2c0,0.2,0.1,0.4,0.2,0.6
		c0,0.2,0.1,0.4,0.1,0.6c0.1,0.8,0.2,1.6,0.1,2.4c-0.1,0.8-0.2,1.6-0.5,2.3c-0.1,0.4-0.3,0.7-0.5,1.1c-0.2,0.4-0.4,0.7-0.6,1
		c-0.5,0.6-0.9,1.2-1.5,1.7c-0.3,0.3-0.6,0.5-0.8,0.7c-0.3,0.2-0.6,0.4-0.9,0.6c-0.3,0.2-0.6,0.4-0.9,0.5c-0.3,0.2-0.6,0.3-0.8,0.4
		c-0.3,0.1-0.5,0.2-0.8,0.3c-0.3,0.1-0.5,0.2-0.7,0.3c-0.4,0.2-0.8,0.2-1,0.3C47.7,138.1,47.6,138.1,47.6,138.1"/>
	<path fill="#EF64A0" d="M65.8,128.7c0,2-2.7,3.6-6,3.6c-3.3,0-6-1.6-6-3.6c0-2,2.7-3.6,6-3.6C63.1,125.1,65.8,126.7,65.8,128.7"/>
	<path fill="#3193D1" d="M66.2,131.2c-0.1-0.7-0.7-1.2-1.4-1.4l-9.3-2.8c-0.7-0.2-1.4-0.1-2,0.2l-32.9,23.6l-4.7-1.3
		c-0.2-0.1-0.3-0.1-0.5-0.1c-1.6-0.1-2.1,1.1-2.8,2.8c-0.6,1.4-0.9,2.6-1.1,3.6c-0.3,2.5,0.9,3.5,1.6,3.9c0.1,0.1,0.3,0.1,0.4,0.1
		l8.9,2.4c0.2,0.1,0.5,0.1,0.9,0.1c0.8,0,1.7-0.3,2.9-1.3c0,0,0-0.1,0.1-0.1l39-28C66,132.6,66.3,131.9,66.2,131.2"/>
	<path fill="#FFFFFF" d="M25.1,156.9l34.5-24.8l-4.4-1.3l-29.9,21.4c0.7,0.3,1.1,1,1.1,1.8c0,0.4-0.2,0.7-0.4,1
		C25.9,155.2,25.5,156,25.1,156.9"/>
	<path fill="#FFFFFF" d="M15.7,156.2l5.1,1.4c0.2-0.8,0.4-1.6,0.8-2.5l-5.1-1.4C16.1,154.5,15.8,155.4,15.7,156.2"/>
</g>
</svg>
