<?xml version="1.0" encoding="utf-8"?>
<!-- Generator: Adobe Illustrator 19.0.1, SVG Export Plug-In . SVG Version: 6.00 Build 0)  -->
<svg version="1.1" id="Layer_1" xmlns="http://www.w3.org/2000/svg" xmlns:xlink="http://www.w3.org/1999/xlink" x="0px" y="0px"
	 viewBox="0 0 130 169.8" enable-background="new 0 0 130 169.8" xml:space="preserve">
<g>
	<g>
		<path fill="#EF64A0" d="M65,25.8c-33.1,0-60,26.9-60,60c0,33.1,26.9,60,60,60c33.1,0,60-26.9,60-60C125,52.7,98.1,25.8,65,25.8z
			 M65,142c-31,0-56.2-25.2-56.2-56.2c0-22,12.7-41.1,31.2-50.3c7.7-3.2,13.6-2.2,16,1.1c2.4,3.4-1.2,6.1-3.5,1.8
			c-0.5,3.7,1.9,5.7,4.8,5.7c2.5,0,4.6-2.5,4.6-5.4c0-12.7,16.7-7.8,24.4-5c20.5,8.4,35,28.6,35,52C121.2,116.8,96,142,65,142z"/>
	</g>
	<path fill="#3193D1" d="M71,153.2l8.5,12.3H65.7l-1-2.4l-1.1,2.4H49.9l8.3-12.3c0,0,1,4.7,6.5,4.7C70.2,158,71,153.2,71,153.2"/>
	<path fill="#EF64A0" d="M61.9,101c0,1.8-1.5,3.3-3.3,3.3c-1.8,0-3.3-1.5-3.3-3.3c0-1.8,1.5-3.3,3.3-3.3
		C60.5,97.7,61.9,99.2,61.9,101"/>
	<path fill="#EF64A0" d="M74.3,101c0,1.8-1.5,3.3-3.3,3.3c-1.8,0-3.3-1.5-3.3-3.3c0-1.8,1.5-3.3,3.3-3.3
		C72.8,97.7,74.3,99.2,74.3,101"/>
	<path fill="#EF64A0" d="M64.8,160.2c-5,0-9.1-4.1-9.1-9.1c0-5,4.1-9.1,9.1-9.1c5,0,9.1,4.1,9.1,9.1
		C73.9,156.1,69.8,160.2,64.8,160.2 M64.8,145.8c-2.9,0-5.3,2.4-5.3,5.3s2.4,5.3,5.3,5.3c2.9,0,5.3-2.4,5.3-5.3
		S67.7,145.8,64.8,145.8"/>
	<path fill="#EF64A0" d="M76.8,154.4h-10c-1,0-1.9-0.8-1.9-1.9c0-1,0.8-1.9,1.9-1.9h5.3l-3.2-3.1c-0.8-0.7-0.8-1.9-0.1-2.7
		c0.7-0.8,1.9-0.8,2.7-0.1l6.6,6.3c0.6,0.5,0.7,1.3,0.5,2.1C78.2,153.9,77.5,154.4,76.8,154.4"/>
	<path fill="#EF64A0" d="M60.7,169.6c-0.1,0-0.1,0-0.2,0c-1-0.1-1.8-1-1.7-2.1l1.1-10.1c0.1-1,1.1-1.8,2.1-1.7c1,0.1,1.8,1,1.7,2.1
		L62.6,168C62.5,168.9,61.7,169.6,60.7,169.6"/>
	<path fill="#EF64A0" d="M68.9,169.6c-0.9,0-1.8-0.7-1.9-1.7l-1.1-10.1c-0.1-1,0.6-2,1.7-2.1c1-0.1,2,0.6,2.1,1.7l1.1,10.1
		c0.1,1-0.6,2-1.7,2.1C69,169.6,68.9,169.6,68.9,169.6"/>
	<path fill="#EF64A0" d="M50.6,150.1c-0.2,0-0.4,0-0.6-0.1l-5.1-1.8c-1-0.3-1.5-1.4-1.2-2.4c0.3-1,1.4-1.5,2.4-1.2l4.5,1.6l8.8-2.2
		c1-0.3,2,0.4,2.3,1.4c0.3,1-0.4,2-1.4,2.3L51,150C50.9,150,50.7,150.1,50.6,150.1"/>
	<path fill="#3193D1" d="M38.3,169.8H8.7c-4.8,0-8.7-3.9-8.7-8.7v-29.7c0-4.8,3.9-8.7,8.7-8.7h29.7c4.8,0,8.7,3.9,8.7,8.7v29.7
		C47,165.9,43.1,169.8,38.3,169.8"/>
	<path fill="#FFFFFF" d="M8.7,126.1c-3,0-5.4,2.4-5.4,5.4v29.7c0,3,2.4,5.4,5.4,5.4h29.7c3,0,5.4-2.4,5.4-5.4v-29.7
		c0-3-2.4-5.4-5.4-5.4H8.7z"/>
	<g>
		<path fill="#3193D1" d="M18.1,150.2c-2.1-2.1-2.1-5.5,0-7.7c2.1-2.1,5.5-2.1,7.7,0c2.1,2.1,2.1,5.5,0,7.7S20.2,152.3,18.1,150.2
			 M24.7,143.5c-1.5-1.5-4-1.5-5.6,0c-1.5,1.5-1.5,4,0,5.6c1.5,1.5,4,1.5,5.6,0C26.3,147.6,26.3,145.1,24.7,143.5"/>
		<path fill="#3193D1" d="M11.8,156.4c-5.6-5.6-5.6-14.7,0-20.2c5.6-5.6,14.7-5.6,20.2,0c5.6,5.6,5.6,14.7,0,20.2
			C26.5,162,17.4,162,11.8,156.4 M30,138.3c-4.4-4.4-11.6-4.4-16.1,0c-4.4,4.4-4.4,11.6,0,16.1c4.4,4.4,11.6,4.4,16.1,0
			C34.4,149.9,34.4,142.7,30,138.3"/>
		
			<rect x="26.6" y="136.1" transform="matrix(0.7071 0.7071 -0.7071 0.7071 107.3323 21.1599)" fill="#3193D1" width="2.9" height="8.2"/>
		
			<rect x="11.8" y="141.3" transform="matrix(-0.1474 0.9891 -0.9891 -0.1474 158.9615 153.6999)" fill="#3193D1" width="2.9" height="8.2"/>
		
			<rect x="18.8" y="153.6" transform="matrix(0.1472 0.9891 -0.9891 0.1472 172.8687 109.5514)" fill="#3193D1" width="8.2" height="2.9"/>
		<path fill="#3193D1" d="M24.2,148.6c-1.3,1.3-3.3,1.3-4.6,0c-1.3-1.3-1.3-3.3,0-4.6c1.3-1.3,3.3-1.3,4.6,0
			C25.5,145.3,25.5,147.4,24.2,148.6"/>
	</g>
	<path fill="none" stroke="#EF64A0" stroke-width="4" stroke-linecap="round" stroke-miterlimit="10" d="M53.8,120.8
		c0,0,4.1,2.4,11,2.4s11.4-2.4,11.4-2.4"/>
	
		<rect x="40.8" y="134.4" fill="none" stroke="#3193D1" stroke-width="2" stroke-linejoin="round" stroke-miterlimit="10" width="3.9" height="4.6"/>
	
		<rect x="40.8" y="153.7" fill="none" stroke="#3193D1" stroke-width="2" stroke-linejoin="round" stroke-miterlimit="10" width="3.9" height="4.6"/>
</g>
</svg>
