<?xml version="1.0" encoding="utf-8"?>
<!-- Generator: Adobe Illustrator 19.0.1, SVG Export Plug-In . SVG Version: 6.00 Build 0)  -->
<svg version="1.1" id="Layer_1" xmlns="http://www.w3.org/2000/svg" xmlns:xlink="http://www.w3.org/1999/xlink" x="0px" y="0px"
	 viewBox="0 0 130 170" enable-background="new 0 0 130 170" xml:space="preserve">
<g>
	<path fill="#EF64A0" d="M125,86c0-33.1-26.9-60-60-60S5,52.9,5,86c0,30.7,23,55.9,52.7,59.6c0,0,0,0,0,0l-6,5.5l-3.7-1.5
		c-1-0.4-2.2,0.1-2.6,1.1c-0.4,1,0.1,2.2,1.1,2.6l4.9,2c0.2,0.1,0.5,0.2,0.8,0.2c0.5,0,1-0.2,1.3-0.5l2.3-2.1c0.4,2.7,1.9,5,4.1,6.4
		l-0.9,8.7c-0.1,1.1,0.7,2.1,1.8,2.2c0.1,0,0.1,0,0.2,0c1,0,1.9-0.8,2-1.8l0.8-7.6c0.4,0.1,0.8,0.1,1.2,0.1s0.8,0,1.2-0.1l0.8,7.6
		c0.1,1,1,1.8,2,1.8c0.1,0,0.1,0,0.2,0c1.1-0.1,1.9-1.1,1.8-2.2l-0.9-8.7c2.2-1.4,3.7-3.7,4.1-6.4l2.3,2.1c0.4,0.3,0.9,0.5,1.3,0.5
		c0.3,0,0.5,0,0.8-0.2l4.9-2c1-0.4,1.5-1.6,1.1-2.6c-0.4-1-1.6-1.5-2.6-1.1l-3.7,1.5l-6-5.5c0,0,0,0,0,0C102,141.9,125,116.7,125,86
		 M9,86c0-30.9,25.1-56,56-56s56,25.1,56,56s-25.1,56-56,56S9,116.9,9,86 M65,156.7c-2.9,0-5.3-2.4-5.3-5.3c0-2.9,2.4-5.3,5.3-5.3
		c2.9,0,5.3,2.4,5.3,5.3C70.3,154.3,67.9,156.7,65,156.7"/>
	<path fill="#EF64A0" d="M107,86c0-0.7-0.3-1.3-0.9-1.7c-0.5-0.4-1.2-0.5-1.9-0.2C89.4,90,77.3,92.6,65,92.6
		c-12.3,0-24.4-2.6-39.3-8.5c-0.6-0.2-1.3-0.2-1.9,0.2c-0.5,0.4-0.9,1-0.9,1.7c0,23.2,18.8,42,42,42S107,109.2,107,86 M27.1,89
		c14,5.3,25.8,7.7,37.9,7.7c12,0,23.8-2.4,37.9-7.7c-1.5,19.6-17.9,35-37.9,35C45,124,28.6,108.5,27.1,89"/>
	<g>
		<path fill="#EF64A0" d="M62.1,81.7c0,1.8-1.5,3.3-3.3,3.3c-1.8,0-3.3-1.5-3.3-3.3c0-1.8,1.5-3.3,3.3-3.3
			C60.6,78.4,62.1,79.9,62.1,81.7"/>
		<path fill="#EF64A0" d="M74.6,81.7c0,1.8-1.5,3.3-3.3,3.3c-1.8,0-3.3-1.5-3.3-3.3c0-1.8,1.5-3.3,3.3-3.3
			C73.1,78.4,74.6,79.9,74.6,81.7"/>
		<path fill="#3193D1" d="M66,149c0,0.6-0.4,1-1,1c-0.6,0-1-0.4-1-1c0-0.6,0.4-1,1-1C65.6,148,66,148.4,66,149"/>
		<path fill="#3193D1" d="M66,152c0,0.6-0.4,1-1,1c-0.6,0-1-0.4-1-1c0-0.6,0.4-1,1-1C65.6,151,66,151.4,66,152"/>
		<path fill="#3195D2" d="M41.1,54.1c0,0,0.2-0.1,0.5-0.4c0.3-0.2,0.8-0.6,1.4-1c1.2-0.9,3-2,5.3-3.1c2.3-1.1,5-2.1,8.1-2.9
			c1.5-0.4,3.1-0.7,4.8-0.8c1.6-0.2,3.3-0.3,5-0.3c1.7,0,3.3,0.1,5,0.3c1.6,0.2,3.2,0.5,4.8,0.8c3.1,0.7,5.8,1.8,8.1,2.9
			c2.3,1.1,4.1,2.2,5.3,3.1c1.2,0.9,1.8,1.4,1.8,1.4c0,0-0.8-0.3-2.2-0.8c-1.4-0.5-3.3-1.1-5.7-1.7c-2.3-0.6-5.1-1.2-8-1.6
			c-1.5-0.2-3-0.4-4.5-0.5c-1.5-0.1-3.1-0.2-4.6-0.2c-1.6,0-3.1,0.1-4.6,0.2c-1.5,0.1-3,0.3-4.5,0.5c-2.9,0.4-5.6,1-8,1.6
			c-2.3,0.6-4.3,1.2-5.7,1.7c-0.7,0.2-1.2,0.4-1.6,0.6C41.3,54,41.1,54.1,41.1,54.1"/>
		<path fill="#3195D2" d="M38.5,49.4c0,0,0.2-0.1,0.5-0.4c0.3-0.3,0.9-0.7,1.5-1.1c1.3-0.9,3.3-2.2,5.8-3.3c2.5-1.2,5.6-2.3,8.9-3.1
			c1.7-0.4,3.5-0.7,5.3-0.9c1.8-0.2,3.7-0.3,5.5-0.3c1.8,0,3.7,0.1,5.5,0.3c1.8,0.2,3.6,0.5,5.3,0.9c3.4,0.8,6.4,1.9,8.9,3.1
			c2.5,1.2,4.5,2.4,5.8,3.3c1.3,0.9,2.1,1.5,2.1,1.5c0,0-0.9-0.3-2.4-0.9c-1.5-0.5-3.7-1.3-6.3-2c-2.6-0.7-5.6-1.4-8.8-1.9
			c-1.6-0.2-3.3-0.4-5-0.6c-1.7-0.1-3.4-0.2-5.1-0.2c-1.7,0-3.4,0.1-5.1,0.2c-1.7,0.1-3.4,0.3-5,0.6c-3.2,0.5-6.2,1.1-8.8,1.9
			c-2.6,0.7-4.7,1.4-6.3,2c-0.8,0.3-1.4,0.5-1.8,0.6C38.7,49.3,38.5,49.4,38.5,49.4"/>
		<path fill="#3195D2" d="M35.8,44.8c0,0,0.2-0.2,0.6-0.5c0.4-0.3,0.9-0.7,1.7-1.2c1.5-1,3.7-2.3,6.4-3.6c2.8-1.3,6.1-2.5,9.8-3.3
			c1.8-0.4,3.8-0.8,5.7-1c2-0.2,4-0.3,6-0.3c2,0,4,0.1,6,0.3c2,0.2,3.9,0.6,5.7,1c3.7,0.8,7,2.1,9.8,3.3c2.8,1.3,4.9,2.6,6.4,3.6
			c1.5,1,2.3,1.7,2.3,1.7c0,0-1-0.4-2.6-1c-1.7-0.6-4-1.4-6.8-2.2c-2.8-0.8-6.1-1.6-9.7-2.1c-1.8-0.3-3.6-0.5-5.5-0.6
			c-1.9-0.1-3.8-0.2-5.7-0.2c-1.9,0-3.8,0.1-5.7,0.2c-1.9,0.1-3.7,0.4-5.5,0.6c-3.5,0.5-6.8,1.3-9.7,2.1c-2.8,0.8-5.2,1.6-6.8,2.2
			c-0.8,0.3-1.5,0.5-1.9,0.7C36.1,44.7,35.8,44.8,35.8,44.8"/>
		<path fill="#3193D1" d="M79.7,137.2c-0.1-0.1-0.2-0.2-0.3-0.3c-0.1,0-0.3,0-0.4,0l-10.3,4.6c-0.6-1.5-2-2.5-3.7-2.5
			c-1.7,0-3.1,1-3.7,2.5L51,136.9c-0.1-0.1-0.3-0.1-0.4,0c-0.1,0-0.2,0.1-0.3,0.3c0,0.1-1,2.4-1,5.8s1,5.7,1,5.8
			c0.1,0.1,0.2,0.2,0.3,0.3c0.1,0,0.1,0,0.2,0c0.1,0,0.1,0,0.2,0l10.3-4.6c0.6,1.5,2,2.5,3.7,2.5c1.7,0,3.1-1,3.7-2.5l10.3,4.6
			c0.1,0,0.1,0,0.2,0c0.1,0,0.1,0,0.2,0c0.1,0,0.2-0.1,0.3-0.3c0-0.1,1-2.4,1-5.8S79.7,137.3,79.7,137.2z"/>
	</g>
</g>
</svg>
